<mxfile host="app.diagrams.net" modified="2023-05-22T20:54:32.130Z" agent="Mozilla/5.0 (Windows NT 10.0; Win64; x64) AppleWebKit/537.36 (KHTML, like Gecko) Chrome/113.0.0.0 Safari/537.36" etag="sfuCvrF9QYxbpbXQUf6_" version="21.2.4" type="device">
  <diagram id="C5RBs43oDa-KdzZeNtuy" name="Page-1">
    <mxGraphModel dx="1179" dy="476" grid="1" gridSize="10" guides="1" tooltips="1" connect="1" arrows="1" fold="1" page="1" pageScale="1" pageWidth="827" pageHeight="1169" math="0" shadow="0">
      <root>
        <mxCell id="WIyWlLk6GJQsqaUBKTNV-0" />
        <mxCell id="WIyWlLk6GJQsqaUBKTNV-1" parent="WIyWlLk6GJQsqaUBKTNV-0" />
        <mxCell id="wAypo3cwiPXsFD_8yfsH-0" value="" style="rounded=0;html=1;jettySize=auto;orthogonalLoop=1;fontSize=11;endArrow=block;endFill=0;endSize=8;strokeWidth=1;shadow=0;labelBackgroundColor=none;edgeStyle=orthogonalEdgeStyle;entryX=0.5;entryY=0;entryDx=0;entryDy=0;" edge="1" parent="WIyWlLk6GJQsqaUBKTNV-1" source="wAypo3cwiPXsFD_8yfsH-1" target="wAypo3cwiPXsFD_8yfsH-6">
          <mxGeometry relative="1" as="geometry">
            <mxPoint x="130" y="110" as="targetPoint" />
          </mxGeometry>
        </mxCell>
        <mxCell id="wAypo3cwiPXsFD_8yfsH-1" value="LOG-IN PAGE" style="rounded=1;whiteSpace=wrap;html=1;fontSize=12;glass=0;strokeWidth=1;shadow=0;" vertex="1" parent="WIyWlLk6GJQsqaUBKTNV-1">
          <mxGeometry x="70" y="120" width="120" height="40" as="geometry" />
        </mxCell>
        <mxCell id="wAypo3cwiPXsFD_8yfsH-4" value="NO" style="edgeStyle=orthogonalEdgeStyle;rounded=0;orthogonalLoop=1;jettySize=auto;html=1;entryX=0;entryY=0.5;entryDx=0;entryDy=0;" edge="1" parent="WIyWlLk6GJQsqaUBKTNV-1" source="wAypo3cwiPXsFD_8yfsH-6" target="wAypo3cwiPXsFD_8yfsH-7">
          <mxGeometry relative="1" as="geometry">
            <mxPoint x="240" y="235" as="targetPoint" />
          </mxGeometry>
        </mxCell>
        <mxCell id="wAypo3cwiPXsFD_8yfsH-5" value="YES" style="edgeStyle=orthogonalEdgeStyle;rounded=0;orthogonalLoop=1;jettySize=auto;html=1;" edge="1" parent="WIyWlLk6GJQsqaUBKTNV-1" source="wAypo3cwiPXsFD_8yfsH-6" target="wAypo3cwiPXsFD_8yfsH-9">
          <mxGeometry relative="1" as="geometry" />
        </mxCell>
        <mxCell id="wAypo3cwiPXsFD_8yfsH-6" value="Registered?" style="rhombus;whiteSpace=wrap;html=1;" vertex="1" parent="WIyWlLk6GJQsqaUBKTNV-1">
          <mxGeometry x="85" y="190" width="90" height="90" as="geometry" />
        </mxCell>
        <mxCell id="wAypo3cwiPXsFD_8yfsH-7" value="Go to Sign Up Page" style="rounded=1;whiteSpace=wrap;html=1;fontSize=12;glass=0;strokeWidth=1;shadow=0;" vertex="1" parent="WIyWlLk6GJQsqaUBKTNV-1">
          <mxGeometry x="230" y="215" width="120" height="40" as="geometry" />
        </mxCell>
        <mxCell id="wAypo3cwiPXsFD_8yfsH-9" value="FILL IN THE REQUIRED CREDENTIALS FOR LOG-IN" style="rounded=1;whiteSpace=wrap;html=1;fontSize=12;glass=0;strokeWidth=1;shadow=0;" vertex="1" parent="WIyWlLk6GJQsqaUBKTNV-1">
          <mxGeometry x="60" y="325" width="140" height="65" as="geometry" />
        </mxCell>
        <mxCell id="wAypo3cwiPXsFD_8yfsH-10" value="" style="edgeStyle=orthogonalEdgeStyle;rounded=0;orthogonalLoop=1;jettySize=auto;html=1;exitX=0.5;exitY=1;exitDx=0;exitDy=0;" edge="1" parent="WIyWlLk6GJQsqaUBKTNV-1" source="wAypo3cwiPXsFD_8yfsH-9" target="wAypo3cwiPXsFD_8yfsH-13">
          <mxGeometry relative="1" as="geometry">
            <mxPoint x="130" y="445" as="sourcePoint" />
          </mxGeometry>
        </mxCell>
        <mxCell id="wAypo3cwiPXsFD_8yfsH-12" value="YES" style="edgeStyle=orthogonalEdgeStyle;rounded=0;orthogonalLoop=1;jettySize=auto;html=1;" edge="1" parent="WIyWlLk6GJQsqaUBKTNV-1" source="wAypo3cwiPXsFD_8yfsH-13" target="wAypo3cwiPXsFD_8yfsH-15">
          <mxGeometry relative="1" as="geometry" />
        </mxCell>
        <mxCell id="wAypo3cwiPXsFD_8yfsH-21" value="NO" style="edgeStyle=orthogonalEdgeStyle;rounded=0;orthogonalLoop=1;jettySize=auto;html=1;" edge="1" parent="WIyWlLk6GJQsqaUBKTNV-1" source="wAypo3cwiPXsFD_8yfsH-13" target="wAypo3cwiPXsFD_8yfsH-18">
          <mxGeometry relative="1" as="geometry" />
        </mxCell>
        <mxCell id="wAypo3cwiPXsFD_8yfsH-13" value="AGENTS?" style="rhombus;whiteSpace=wrap;html=1;" vertex="1" parent="WIyWlLk6GJQsqaUBKTNV-1">
          <mxGeometry x="90" y="427" width="80" height="80" as="geometry" />
        </mxCell>
        <mxCell id="wAypo3cwiPXsFD_8yfsH-14" value="" style="edgeStyle=orthogonalEdgeStyle;rounded=0;orthogonalLoop=1;jettySize=auto;html=1;entryX=0.5;entryY=0;entryDx=0;entryDy=0;" edge="1" parent="WIyWlLk6GJQsqaUBKTNV-1" source="wAypo3cwiPXsFD_8yfsH-15" target="wAypo3cwiPXsFD_8yfsH-22">
          <mxGeometry relative="1" as="geometry">
            <mxPoint x="130" y="642" as="targetPoint" />
          </mxGeometry>
        </mxCell>
        <mxCell id="wAypo3cwiPXsFD_8yfsH-15" value="Go to Agents Dashboard" style="rounded=1;whiteSpace=wrap;html=1;fontSize=12;glass=0;strokeWidth=1;shadow=0;" vertex="1" parent="WIyWlLk6GJQsqaUBKTNV-1">
          <mxGeometry x="70" y="562" width="120" height="40" as="geometry" />
        </mxCell>
        <mxCell id="wAypo3cwiPXsFD_8yfsH-18" value="Go to Home Page" style="rounded=1;whiteSpace=wrap;html=1;fontSize=12;glass=0;strokeWidth=1;shadow=0;" vertex="1" parent="WIyWlLk6GJQsqaUBKTNV-1">
          <mxGeometry x="370" y="447" width="120" height="40" as="geometry" />
        </mxCell>
        <mxCell id="wAypo3cwiPXsFD_8yfsH-24" value="NO" style="edgeStyle=orthogonalEdgeStyle;rounded=0;orthogonalLoop=1;jettySize=auto;html=1;entryX=0;entryY=0.5;entryDx=0;entryDy=0;" edge="1" parent="WIyWlLk6GJQsqaUBKTNV-1" source="wAypo3cwiPXsFD_8yfsH-22" target="wAypo3cwiPXsFD_8yfsH-25">
          <mxGeometry relative="1" as="geometry">
            <mxPoint x="224" y="690" as="targetPoint" />
          </mxGeometry>
        </mxCell>
        <mxCell id="wAypo3cwiPXsFD_8yfsH-27" value="YES" style="edgeStyle=orthogonalEdgeStyle;rounded=0;orthogonalLoop=1;jettySize=auto;html=1;" edge="1" parent="WIyWlLk6GJQsqaUBKTNV-1" source="wAypo3cwiPXsFD_8yfsH-22" target="wAypo3cwiPXsFD_8yfsH-26">
          <mxGeometry relative="1" as="geometry" />
        </mxCell>
        <mxCell id="wAypo3cwiPXsFD_8yfsH-22" value="POST A NEW LISTING?" style="rhombus;whiteSpace=wrap;html=1;" vertex="1" parent="WIyWlLk6GJQsqaUBKTNV-1">
          <mxGeometry x="75" y="641" width="110" height="98" as="geometry" />
        </mxCell>
        <mxCell id="wAypo3cwiPXsFD_8yfsH-29" value="YES" style="edgeStyle=orthogonalEdgeStyle;rounded=0;orthogonalLoop=1;jettySize=auto;html=1;" edge="1" parent="WIyWlLk6GJQsqaUBKTNV-1" source="wAypo3cwiPXsFD_8yfsH-25" target="wAypo3cwiPXsFD_8yfsH-28">
          <mxGeometry relative="1" as="geometry" />
        </mxCell>
        <mxCell id="wAypo3cwiPXsFD_8yfsH-31" value="NO" style="edgeStyle=orthogonalEdgeStyle;rounded=0;orthogonalLoop=1;jettySize=auto;html=1;" edge="1" parent="WIyWlLk6GJQsqaUBKTNV-1" source="wAypo3cwiPXsFD_8yfsH-25" target="wAypo3cwiPXsFD_8yfsH-30">
          <mxGeometry relative="1" as="geometry" />
        </mxCell>
        <mxCell id="wAypo3cwiPXsFD_8yfsH-25" value="Check Messages?" style="rhombus;whiteSpace=wrap;html=1;" vertex="1" parent="WIyWlLk6GJQsqaUBKTNV-1">
          <mxGeometry x="240" y="645" width="90" height="90" as="geometry" />
        </mxCell>
        <mxCell id="wAypo3cwiPXsFD_8yfsH-26" value="Go to Add New Listing Tab" style="rounded=1;whiteSpace=wrap;html=1;fontSize=12;glass=0;strokeWidth=1;shadow=0;" vertex="1" parent="WIyWlLk6GJQsqaUBKTNV-1">
          <mxGeometry x="70" y="780" width="120" height="40" as="geometry" />
        </mxCell>
        <mxCell id="wAypo3cwiPXsFD_8yfsH-44" value="" style="edgeStyle=orthogonalEdgeStyle;rounded=0;orthogonalLoop=1;jettySize=auto;html=1;" edge="1" parent="WIyWlLk6GJQsqaUBKTNV-1" source="wAypo3cwiPXsFD_8yfsH-28" target="wAypo3cwiPXsFD_8yfsH-41">
          <mxGeometry relative="1" as="geometry" />
        </mxCell>
        <mxCell id="wAypo3cwiPXsFD_8yfsH-28" value="Go to Messages Tab" style="rounded=1;whiteSpace=wrap;html=1;fontSize=12;glass=0;strokeWidth=1;shadow=0;" vertex="1" parent="WIyWlLk6GJQsqaUBKTNV-1">
          <mxGeometry x="225" y="780" width="120" height="40" as="geometry" />
        </mxCell>
        <mxCell id="wAypo3cwiPXsFD_8yfsH-33" value="YES" style="edgeStyle=orthogonalEdgeStyle;rounded=0;orthogonalLoop=1;jettySize=auto;html=1;" edge="1" parent="WIyWlLk6GJQsqaUBKTNV-1" source="wAypo3cwiPXsFD_8yfsH-30" target="wAypo3cwiPXsFD_8yfsH-32">
          <mxGeometry relative="1" as="geometry" />
        </mxCell>
        <mxCell id="wAypo3cwiPXsFD_8yfsH-30" value="Update A Listing?" style="rhombus;whiteSpace=wrap;html=1;" vertex="1" parent="WIyWlLk6GJQsqaUBKTNV-1">
          <mxGeometry x="385" y="645" width="90" height="90" as="geometry" />
        </mxCell>
        <mxCell id="wAypo3cwiPXsFD_8yfsH-32" value="Go to Update Tab" style="rounded=1;whiteSpace=wrap;html=1;fontSize=12;glass=0;strokeWidth=1;shadow=0;" vertex="1" parent="WIyWlLk6GJQsqaUBKTNV-1">
          <mxGeometry x="370" y="780" width="120" height="40" as="geometry" />
        </mxCell>
        <mxCell id="wAypo3cwiPXsFD_8yfsH-37" value="LOG OUT" style="rounded=1;whiteSpace=wrap;html=1;fontSize=12;glass=0;strokeWidth=1;shadow=0;" vertex="1" parent="WIyWlLk6GJQsqaUBKTNV-1">
          <mxGeometry x="225" y="1020" width="120" height="40" as="geometry" />
        </mxCell>
        <mxCell id="wAypo3cwiPXsFD_8yfsH-40" value="YES" style="edgeStyle=elbowEdgeStyle;elbow=horizontal;endArrow=classic;html=1;curved=0;rounded=0;endSize=8;startSize=8;exitX=1;exitY=0.5;exitDx=0;exitDy=0;entryX=1;entryY=0.5;entryDx=0;entryDy=0;" edge="1" parent="WIyWlLk6GJQsqaUBKTNV-1" source="wAypo3cwiPXsFD_8yfsH-41" target="wAypo3cwiPXsFD_8yfsH-18">
          <mxGeometry x="-0.6304" width="50" height="50" relative="1" as="geometry">
            <mxPoint x="640" y="690" as="sourcePoint" />
            <mxPoint x="705" y="570" as="targetPoint" />
            <Array as="points">
              <mxPoint x="690" y="570" />
            </Array>
            <mxPoint x="1" as="offset" />
          </mxGeometry>
        </mxCell>
        <mxCell id="wAypo3cwiPXsFD_8yfsH-45" value="" style="edgeStyle=orthogonalEdgeStyle;rounded=0;orthogonalLoop=1;jettySize=auto;html=1;" edge="1" parent="WIyWlLk6GJQsqaUBKTNV-1" source="wAypo3cwiPXsFD_8yfsH-41" target="wAypo3cwiPXsFD_8yfsH-37">
          <mxGeometry relative="1" as="geometry" />
        </mxCell>
        <mxCell id="wAypo3cwiPXsFD_8yfsH-41" value="Continue?" style="rhombus;whiteSpace=wrap;html=1;" vertex="1" parent="WIyWlLk6GJQsqaUBKTNV-1">
          <mxGeometry x="240" y="890" width="90" height="90" as="geometry" />
        </mxCell>
        <mxCell id="wAypo3cwiPXsFD_8yfsH-42" value="" style="edgeStyle=elbowEdgeStyle;elbow=vertical;endArrow=classic;html=1;curved=0;rounded=0;endSize=8;startSize=8;exitX=0.5;exitY=1;exitDx=0;exitDy=0;entryX=0.5;entryY=0;entryDx=0;entryDy=0;" edge="1" parent="WIyWlLk6GJQsqaUBKTNV-1" source="wAypo3cwiPXsFD_8yfsH-26" target="wAypo3cwiPXsFD_8yfsH-41">
          <mxGeometry width="50" height="50" relative="1" as="geometry">
            <mxPoint x="120" y="910" as="sourcePoint" />
            <mxPoint x="170" y="860" as="targetPoint" />
          </mxGeometry>
        </mxCell>
        <mxCell id="wAypo3cwiPXsFD_8yfsH-43" value="" style="edgeStyle=elbowEdgeStyle;elbow=vertical;endArrow=classic;html=1;curved=0;rounded=0;endSize=8;startSize=8;exitX=0.5;exitY=1;exitDx=0;exitDy=0;entryX=0.5;entryY=0;entryDx=0;entryDy=0;" edge="1" parent="WIyWlLk6GJQsqaUBKTNV-1" source="wAypo3cwiPXsFD_8yfsH-32" target="wAypo3cwiPXsFD_8yfsH-41">
          <mxGeometry width="50" height="50" relative="1" as="geometry">
            <mxPoint x="425" y="920" as="sourcePoint" />
            <mxPoint x="475" y="870" as="targetPoint" />
          </mxGeometry>
        </mxCell>
        <mxCell id="wAypo3cwiPXsFD_8yfsH-46" value="" style="edgeStyle=elbowEdgeStyle;elbow=vertical;endArrow=classic;html=1;curved=0;rounded=0;endSize=8;startSize=8;exitX=1;exitY=0.5;exitDx=0;exitDy=0;entryX=0.5;entryY=0;entryDx=0;entryDy=0;" edge="1" parent="WIyWlLk6GJQsqaUBKTNV-1" source="wAypo3cwiPXsFD_8yfsH-30" target="wAypo3cwiPXsFD_8yfsH-41">
          <mxGeometry width="50" height="50" relative="1" as="geometry">
            <mxPoint x="500" y="880" as="sourcePoint" />
            <mxPoint x="550" y="830" as="targetPoint" />
            <Array as="points">
              <mxPoint x="570" y="750" />
              <mxPoint x="390" y="860" />
            </Array>
          </mxGeometry>
        </mxCell>
        <mxCell id="wAypo3cwiPXsFD_8yfsH-47" value="NO" style="edgeLabel;html=1;align=center;verticalAlign=middle;resizable=0;points=[];" vertex="1" connectable="0" parent="wAypo3cwiPXsFD_8yfsH-46">
          <mxGeometry x="0.5819" relative="1" as="geometry">
            <mxPoint x="124" y="-200" as="offset" />
          </mxGeometry>
        </mxCell>
      </root>
    </mxGraphModel>
  </diagram>
</mxfile>
